<?xml version="1.0" encoding="utf-8"?>
<!-- Generator: Adobe Illustrator 23.0.5, SVG Export Plug-In . SVG Version: 6.00 Build 0)  -->
<svg version="1.1" id="Capa_1" xmlns="http://www.w3.org/2000/svg" xmlns:xlink="http://www.w3.org/1999/xlink" x="0px" y="0px"
	 viewBox="0 0 2500 2438" style="enable-background:new 0 0 2500 2438;" xml:space="preserve">
<style type="text/css">
	.st0{opacity:0.6;fill:#FFFFFF;}
</style>
<path class="st0" d="M104.2,104.4h2291.7v2229.2H104.2V104.4z M0,2437.8h2500V0.2H0V2437.8z M1768.8,1175.3c53.1,0,71.9,0,77.1-2.1
	c0-7.3,2.1-12.5,2.1-17.7c0-56.3-27.1-160.4-135.4-160.4c-100,0-142.7,87.5-153.1,180.2H1768.8L1768.8,1175.3z M1557.3,1318
	c2.1,140.6,68.7,235.4,227.1,235.4c61.5,0,114.6-8.3,169.8-32.3c7.3-3.1,12.5-2.1,12.5,7.3v130.2c0,10.4-3.1,15.6-10.4,20.8
	c-55.2,27.1-124,39.6-209.4,39.6c-275,0-378.1-203.1-378.1-429.2c0-245.8,127.1-446.9,351-446.9c227.1,0,306.3,190.6,306.3,345.8
	c0,50-3.1,90.6-8.3,110.4c-2.1,8.3-5.2,11.5-13.5,13.5c-20.8,3.1-82.3,7.3-174,7.3h-272.9V1318z M999,1211.7
	c-29.2-115.6-100-367.7-126-489.6h-2.1C849,844,791.7,1050.2,749,1211.7H999z M706.2,1380.5L624,1691.9c-2.1,8.3-5.2,11.5-15.6,11.5
	H455.2c-10.4,0-12.5-3.1-10.4-15.6L740.6,653.4c5.2-18.7,8.3-33.3,10.4-85.4c0-7.3,3.1-10.4,8.3-10.4h218.8
	c7.3,0,10.4,2.1,12.5,10.4l331.2,1121.9c2.1,8.3,0,13.5-8.3,13.5h-171.9c-8.3,0-13.5-3.1-15.6-10.4l-85.4-312.5L706.2,1380.5
	L706.2,1380.5z"/>
</svg>
