<?xml version="1.0" encoding="utf-8"?>
<!-- Generator: Adobe Illustrator 23.0.5, SVG Export Plug-In . SVG Version: 6.00 Build 0)  -->
<svg version="1.1" id="Capa_1" xmlns="http://www.w3.org/2000/svg" xmlns:xlink="http://www.w3.org/1999/xlink" x="0px" y="0px"
	 viewBox="0 0 2500 2438" style="enable-background:new 0 0 2500 2438;" xml:space="preserve">
<style type="text/css">
	.st0{opacity:0.6;fill:#FFFFFF;}
</style>
<path class="st0" d="M104.2,104.4h2291.7v2229.2H104.2V104.4z M0,2437.8h2500V0.2H0V2437.8z M1581.3,1012.7
	c-15.6-7.3-36.5-10.4-61.5-10.4c-134.4,0-228.1,103.1-228.1,275c0,195.8,95.8,275,215.6,275c26,0,53.1-3.1,74-12.5V1012.7z
	 M1526,843c21.9,0,34.4,0,55.2,2.1V568c0-7.3,5.2-10.4,10.4-10.4h168.8c8.3,0,10.4,3.1,10.4,8.3v974c0,29.2,0,65.6,5.2,105.2
	c0,7.3-2.1,8.3-9.4,12.5c-89.6,42.7-184.4,61.5-272.9,61.5c-230.2,0-394.8-142.7-394.8-433.3C1097.9,1036.7,1262.5,843,1526,843
	L1526,843z M914.6,1689.8c0,10.4-2.1,13.5-13.5,13.5H740.6c-10.4,0-13.5-5.2-13.5-13.5V571.1c0-10.4,5.2-13.5,13.5-13.5h161.5
	c8.3,0,12.5,3.1,12.5,12.5V1689.8z"/>
</svg>
