<?xml version="1.0" encoding="utf-8"?>
<!-- Generator: Adobe Illustrator 26.0.1, SVG Export Plug-In . SVG Version: 6.00 Build 0)  -->
<svg version="1.1" id="Capa_1" xmlns="http://www.w3.org/2000/svg" xmlns:xlink="http://www.w3.org/1999/xlink" x="0px" y="0px"
	 viewBox="0 0 2573.6 2573.6" style="enable-background:new 0 0 2573.6 2573.6;" xml:space="preserve">
<style type="text/css">
	.st0{fill:#B3B9BD;}
	.st1{fill:#A7ADB2;}
	.st2{fill:#9FA6AB;}
	.st3{fill:#9AA1A7;}
	.st4{fill:#909599;}
</style>
<g>
	<path class="st0" d="M497.4,797c-185.5,155.8-307.9,380.7-324.9,633.5C172.1,1150.3,314.2,944.7,497.4,797z"/>
	<path class="st0" d="M1936.5,1941.3c-48.5,113.7-151.4,221.8-286.2,304.6C1767.8,2167,1866,2062.7,1936.5,1941.3z"/>
	<path class="st1" d="M2419.5,675.7c-325.4,8.6-262,449.5-368,921.8c-25.7,114.6-61.4,231.1-115,343.7
		c-127.2,59.2-269,92.3-418.5,92.3c-548.2,0-992.6-444.4-992.6-992.6c0-104.3,16.1-204.8,45.9-299.2c16.5-11.4,33.3-22.4,50.2-33.1
		c217.2-136.6,457.8-206.6,583.8-232.6c62.2-12.8,81.5-15.8,133.4-22.4c429.4-54.5,494.1-198,494.1-279.4c0-35.1-12-58.7-12-58.7
		C2076.1,232.3,2286.7,429.9,2419.5,675.7z"/>
	<path class="st2" d="M2573.6,1286.8c0,710.7-576.1,1286.8-1286.8,1286.8C576.1,2573.6,0,1997.5,0,1286.8C0,576.1,576.1,0,1286.8,0
		c138.1,0,271.1,21.8,395.8,62c47.3,15.3,93.4,33.2,138.1,53.6c0,0,12,23.6,12,58.7c0,81.4-64.7,224.8-494.1,279.4
		c-51.9,6.6-71.2,9.6-133.4,22.4c-126,26-366.5,96-583.8,232.6c-17,10.1-33.6,20.7-49.8,31.8C546,758.2,521.2,777,497.4,797
		c-183.2,147.7-325.3,353.3-324.9,633.5c-1.3,20.1-2,40.3-2,60.6c0,506.5,422.5,917.1,943.7,917.1c199.1,0,383.8-59.9,536.1-162.3
		c134.8-82.8,237.8-190.9,286.2-304.6c60.2-103.7,100.3-220,115-343.7c106-472.4,42.6-913.2,368-921.8
		c24.6,45.6,46.6,92.8,65.7,141.5C2542.3,962.7,2573.6,1121.1,2573.6,1286.8z"/>
	<path class="st3" d="M1650.3,2245.9c-152.2,102.3-337,162.3-536.1,162.3c-521.2,0-943.7-410.6-943.7-917.1c0-20.4,0.7-40.6,2-60.6
		c0,25.8,1.3,52.2,3.8,79.3c66.3,707.1,849,1106.1,1460.2,744.5C1641.1,2251.5,1645.7,2248.7,1650.3,2245.9z"/>
	<path class="st3" d="M571.7,740.6c-0.1,0.4-0.3,0.8-0.4,1.3c-25.2,17.4-49.9,35.8-73.9,55.1C521.2,777,546,758.2,571.7,740.6z"/>
	<path class="st4" d="M1936.5,1941.3c-70.5,121.4-168.7,225.6-286.2,304.6c-4.5,2.8-9.1,5.5-13.7,8.3
		c-611.2,361.7-1393.9-37.4-1460.2-744.5c-2.5-27.1-3.8-53.5-3.8-79.3c17-252.8,139.4-477.7,324.9-633.5
		c24-19.4,48.7-37.7,73.9-55.1c-29.8,94.4-45.9,194.9-45.9,299.2c0,548.2,444.4,992.6,992.6,992.6
		C1667.5,2033.6,1809.3,2000.5,1936.5,1941.3z"/>
	<path class="st1" d="M621.5,708.8c-16.9,10.6-33.6,21.6-50.2,33.1c0.1-0.4,0.3-0.8,0.4-1.3C587.9,729.5,604.5,718.9,621.5,708.8z"
		/>
	<path class="st1" d="M2051.5,1597.6c-14.7,123.8-54.8,240-115,343.7C1990.1,1828.7,2025.8,1712.2,2051.5,1597.6z"/>
</g>
</svg>
