<?xml version="1.0" encoding="utf-8"?>
<!-- Generator: Adobe Illustrator 23.0.5, SVG Export Plug-In . SVG Version: 6.00 Build 0)  -->
<svg version="1.1" id="Capa_1" xmlns="http://www.w3.org/2000/svg" xmlns:xlink="http://www.w3.org/1999/xlink" x="0px" y="0px"
	 viewBox="0 0 2500 2442" style="enable-background:new 0 0 2500 2442;" xml:space="preserve">
<style type="text/css">
	.st0{opacity:0.6;}
	.st1{opacity:0.6;fill:#FFFDFD;}
</style>
<g class="st0">
	<path class="st1" d="M2496.9,366.9c6.5-65.3-44.6-116.1-109.9-109.9c-303.3-4.5-607.1,0.3-910.7-1.4V0h-161
		C876.6,74.7,438.5,151.9,0.4,227.7c0,662.2-0.3,1324.7,0,1987.1c433,76.1,866.6,148.2,1299.4,227.2h176.6v-284
		c284.2,0,568.2-0.6,852.2,0.8c48.6-2.3,102.5,1.7,144-28.4c32.9-50.8,24.4-114.4,27.3-171.8C2495.8,1428,2501.7,897.3,2496.9,366.9
		z M833.2,1315.3c-64.4,32.9-138.3,28.4-208.4,26.1c-0.3,111-0.5,222.1-0.3,333.1c-56.3-4.9-112.6-9.6-169-14.2
		c-2.5-303.3-3.1-606.8,0.3-910.1v0c154.2,7.4,341-61.1,468.8,54.5C1047,953.3,1014.7,1226.4,833.2,1315.3z M2413.4,2072.9h-937
		v-227.2h681.5v-113.6h-681.5v-142h681.5v-113.6h-681.2c-0.3-55.7-0.3-111.3-0.5-167c112.4,34.9,240.5,34.1,341-33.5
		c108.8-64.4,165.6-187.4,174.9-310.1c-124.6-0.9-249.3-0.6-373.7-0.6c-0.3-123.5,1.4-247-2.5-370.3c-46.6,9.1-93.1,18.7-139.4,28.7
		V340.8h937V2072.9z"/>
	<path class="st1" d="M2049.1,907.8c-10.5-196.8-176.3-362.9-373.7-372v0c-0.6,124.1-0.3,248.5-0.3,372.8
		C1799.8,908.7,1924.4,909.2,2049.1,907.8z"/>
	<path class="st1" d="M624.5,903.8c-0.8,95.4-1.4,190.5,4.5,285.7c56.5-6.8,129.8-1.1,162.1-59.6c27-57.4,28.7-130.6-3.7-186.3
		C749.7,891.1,680.4,901.3,624.5,903.8z"/>
</g>
</svg>
