<?xml version="1.0" encoding="utf-8"?>
<!-- Generator: Adobe Illustrator 23.0.5, SVG Export Plug-In . SVG Version: 6.00 Build 0)  -->
<svg version="1.1" id="Capa_1" xmlns="http://www.w3.org/2000/svg" xmlns:xlink="http://www.w3.org/1999/xlink" x="0px" y="0px"
	 viewBox="0 0 2500 2438" style="enable-background:new 0 0 2500 2438;" xml:space="preserve">
<style type="text/css">
	.st0{opacity:0.6;fill:#FFFFFF;}
</style>
<path class="st0" d="M104.2,104.4h2291.7v2229.2H104.2V104.4z M0,2437.8h2500V0.2H0V2437.8z M1685.4,1000.2
	c-82.3,0-110.4,41.7-110.4,76c0,37.5,18.7,63.5,129.2,120.8c163.5,79.2,214.6,155.2,214.6,266.7c0,166.7-127.1,256.2-299,256.2
	c-90.6,0-168.8-18.8-213.5-44.8c-7.3-3.1-8.3-8.3-8.3-16.7v-153.1c0-10.4,5.2-13.5,12.5-8.3c65.6,42.7,140.6,61.5,209.4,61.5
	c82.3,0,116.7-34.4,116.7-81.3c0-37.5-24-70.8-129.2-125c-147.9-70.8-209.4-142.7-209.4-262.5c0-134.4,105.2-245.8,287.5-245.8
	c89.6,0,152.1,13.5,186.5,29.2c8.3,5.2,10.4,13.5,10.4,20.8v142.7c0,8.3-5.2,13.5-15.6,10.4
	C1820.8,1018,1753.1,1000.2,1685.4,1000.2L1685.4,1000.2z M789.6,1124.2c24,2.1,42.7,2.1,84.4,2.1c121.9,0,236.5-42.7,236.5-208.3
	c0-132.3-82.3-199-220.8-199c-41.7,0-81.3,2.1-100,3.1V1124.2z M604.2,571.1c0-7.3,14.6-12.5,22.9-12.5
	c66.7-3.1,165.6-5.2,268.8-5.2c288.5,0,401,158.3,401,360.4c0,264.6-191.7,378.1-427.1,378.1c-39.6,0-53.1-2.1-81.3-2.1v400
	c0,8.3-3.1,12.5-12.5,12.5H616.7c-8.3,0-12.5-3.1-12.5-12.5L604.2,571.1L604.2,571.1z"/>
</svg>
